# Blender v3.0.0 OBJ File: ''
# www.blender.org
mtllib birdWing.mtl
o Cube
v 1.025905 1.048712 -0.952377
v 0.874163 0.674385 -0.798104
v 1.068734 0.272958 1.670446
v 0.695517 0.262822 1.026540
v -0.987317 1.071908 -0.964599
v -0.697089 0.650460 -0.529425
v -0.923122 0.693896 1.839747
v -0.894910 0.545211 1.647584
vt 0.625000 0.500000
vt 0.875000 0.750000
vt 0.625000 0.750000
vt 0.375000 1.000000
vt 0.375000 0.750000
vt 0.375000 0.000000
vt 0.625000 0.250000
vt 0.375000 0.250000
vt 0.125000 0.500000
vt 0.125000 0.750000
vt 0.375000 0.500000
vt 0.875000 0.500000
vt 0.625000 1.000000
vt 0.625000 0.000000
vn 0.2211 0.9362 0.2733
vn -0.1378 -0.9859 0.0954
vn -0.7680 -0.6325 -0.1004
vn -0.1991 -0.9778 -0.0654
vn 0.9277 -0.3733 0.0066
vn -0.1009 -0.7475 -0.6566
vn 0.0106 0.9910 0.1333
vn -0.1170 -0.7937 0.5969
vn -0.9830 -0.1836 -0.0022
vn -0.0231 -0.9747 -0.2221
vn 0.4676 -0.8455 -0.2577
vn 0.0012 -0.3815 -0.9244
usemtl Material
s off
f 1/1/1 7/2/1 3/3/1
f 3/3/2 8/4/2 4/5/2
f 8/6/3 5/7/3 6/8/3
f 6/9/4 4/5/4 8/10/4
f 1/1/5 4/5/5 2/11/5
f 5/7/6 2/11/6 6/8/6
f 1/1/7 5/12/7 7/2/7
f 3/3/8 7/13/8 8/4/8
f 8/6/9 7/14/9 5/7/9
f 6/9/10 2/11/10 4/5/10
f 1/1/11 3/3/11 4/5/11
f 5/7/12 1/1/12 2/11/12
